<svg width="347" height="279" viewBox="0 0 347 279" fill="none" xmlns="http://www.w3.org/2000/svg">
<path d="M21.0773 214.985H5.92147V172.231H21.2026C25.503 172.231 29.205 173.087 32.3086 174.799C35.4121 176.496 37.7989 178.939 39.469 182.126C41.153 185.313 41.995 189.126 41.995 193.566C41.995 198.019 41.153 201.847 39.469 205.048C37.7989 208.249 35.3982 210.705 32.2668 212.417C29.1493 214.129 25.4195 214.985 21.0773 214.985ZM14.9607 207.24H20.7016C23.3737 207.24 25.6213 206.766 27.4445 205.82C29.2816 204.86 30.6594 203.378 31.5779 201.373C32.5104 199.355 32.9766 196.753 32.9766 193.566C32.9766 190.407 32.5104 187.825 31.5779 185.821C30.6594 183.817 29.2885 182.342 27.4654 181.395C25.6422 180.449 23.3946 179.976 20.7225 179.976H14.9607V207.24ZM48.6909 214.985V172.231H77.4996V179.683H57.7301V189.871H76.0174V197.324H57.7301V207.532H77.5831V214.985H48.6909ZM107.879 184.527C107.712 182.843 106.995 181.534 105.729 180.602C104.462 179.67 102.744 179.203 100.573 179.203C99.0974 179.203 97.8518 179.412 96.8358 179.83C95.8199 180.233 95.0405 180.797 94.4978 181.521C93.9689 182.244 93.7045 183.065 93.7045 183.984C93.6766 184.749 93.8367 185.417 94.1846 185.988C94.5465 186.559 95.0405 187.053 95.6668 187.47C96.2931 187.874 97.0168 188.229 97.8379 188.535C98.659 188.827 99.5358 189.078 100.468 189.286L104.309 190.205C106.174 190.622 107.886 191.179 109.445 191.875C111.004 192.571 112.354 193.427 113.495 194.443C114.636 195.459 115.52 196.656 116.146 198.033C116.786 199.411 117.113 200.991 117.127 202.772C117.113 205.389 116.445 207.657 115.123 209.578C113.815 211.484 111.922 212.967 109.445 214.024C106.982 215.068 104.01 215.59 100.531 215.59C97.0794 215.59 94.0733 215.061 91.5125 214.003C88.9656 212.946 86.9755 211.38 85.542 209.306C84.1224 207.219 83.3779 204.637 83.3083 201.561H92.0553C92.1527 202.995 92.5633 204.192 93.287 205.152C94.0246 206.098 95.0057 206.815 96.2304 207.302C97.4691 207.775 98.8678 208.012 100.426 208.012C101.957 208.012 103.286 207.789 104.414 207.344C105.555 206.899 106.439 206.279 107.065 205.486C107.691 204.693 108.004 203.781 108.004 202.751C108.004 201.791 107.719 200.984 107.149 200.33C106.592 199.676 105.771 199.119 104.685 198.66C103.614 198.2 102.298 197.783 100.74 197.407L96.0843 196.238C92.4798 195.361 89.6337 193.99 87.5461 192.125C85.4585 190.261 84.4217 187.749 84.4356 184.589C84.4217 182.001 85.1106 179.739 86.5023 177.805C87.9079 175.87 89.8355 174.36 92.2849 173.275C94.7343 172.189 97.5178 171.646 100.635 171.646C103.808 171.646 106.578 172.189 108.944 173.275C111.324 174.36 113.175 175.87 114.497 177.805C115.819 179.739 116.501 181.98 116.543 184.527H107.879ZM123.207 214.985V172.231H152.016V179.683H132.247V189.871H150.534V197.324H132.247V207.532H152.099V214.985H123.207ZM159.202 214.985V172.231H176.07C179.299 172.231 182.055 172.808 184.337 173.963C186.633 175.105 188.38 176.726 189.577 178.828C190.788 180.915 191.393 183.372 191.393 186.197C191.393 189.036 190.781 191.478 189.556 193.524C188.331 195.556 186.557 197.115 184.233 198.2C181.922 199.286 179.125 199.829 175.841 199.829H164.547V192.564H174.379C176.105 192.564 177.538 192.327 178.68 191.854C179.821 191.381 180.67 190.671 181.227 189.725C181.797 188.778 182.082 187.602 182.082 186.197C182.082 184.777 181.797 183.58 181.227 182.606C180.67 181.632 179.814 180.894 178.659 180.393C177.518 179.878 176.077 179.621 174.337 179.621H168.242V214.985H159.202ZM182.291 195.528L192.917 214.985H182.938L172.542 195.528H182.291ZM204.357 172.231L214.691 204.714H215.087L225.442 172.231H235.462L220.724 214.985H209.075L194.316 172.231H204.357ZM249.647 172.231V214.985H240.608V172.231H249.647ZM292.845 172.231V214.985H285.037L266.437 188.076H266.123V214.985H257.084V172.231H265.017L283.471 199.119H283.847V172.231H292.845ZM328.662 186.051C328.37 185.035 327.959 184.137 327.431 183.358C326.902 182.564 326.255 181.896 325.489 181.354C324.738 180.797 323.875 180.372 322.901 180.08C321.94 179.788 320.876 179.642 319.707 179.642C317.522 179.642 315.601 180.184 313.945 181.27C312.303 182.356 311.022 183.935 310.104 186.009C309.185 188.069 308.726 190.588 308.726 193.566C308.726 196.544 309.178 199.077 310.083 201.165C310.987 203.252 312.268 204.846 313.924 205.945C315.58 207.031 317.535 207.574 319.79 207.574C321.836 207.574 323.582 207.212 325.03 206.488C326.491 205.75 327.605 204.714 328.37 203.378C329.149 202.042 329.539 200.462 329.539 198.639L331.376 198.91H320.354V192.105H338.244V197.491C338.244 201.248 337.451 204.477 335.864 207.177C334.278 209.863 332.093 211.937 329.309 213.398C326.526 214.845 323.339 215.569 319.748 215.569C315.74 215.569 312.219 214.685 309.185 212.918C306.151 211.136 303.785 208.61 302.087 205.34C300.403 202.055 299.561 198.159 299.561 193.649C299.561 190.184 300.062 187.094 301.064 184.381C302.08 181.653 303.5 179.343 305.323 177.45C307.146 175.557 309.269 174.117 311.69 173.128C314.112 172.14 316.735 171.646 319.56 171.646C321.982 171.646 324.237 172.001 326.324 172.711C328.412 173.407 330.263 174.395 331.877 175.675C333.505 176.956 334.835 178.48 335.864 180.247C336.894 182.001 337.555 183.935 337.848 186.051H328.662Z" fill="white"/>
<path d="M13.2906 267H3.60425L18.3635 224.246H30.0122L44.7506 267H35.0642L24.3549 234.016H24.0208L13.2906 267ZM12.6852 250.195H35.5652V257.251H12.6852V250.195ZM55.2146 267L42.9813 224.246H52.8556L59.9325 253.953H60.2874L68.095 224.246H76.5497L84.3364 254.015H84.7122L91.7891 224.246H101.663L89.4301 267H80.6205L72.4789 239.047H72.1449L64.0242 267H55.2146ZM109.565 267H99.8785L114.638 224.246H126.286L141.025 267H131.338L120.629 234.016H120.295L109.565 267ZM108.96 250.195H131.839V257.251H108.96V250.195ZM146.171 267V224.246H163.038C166.267 224.246 169.023 224.824 171.305 225.979C173.602 227.12 175.348 228.742 176.545 230.843C177.756 232.931 178.361 235.387 178.361 238.212C178.361 241.051 177.749 243.494 176.524 245.54C175.3 247.572 173.525 249.13 171.201 250.216C168.891 251.301 166.093 251.844 162.809 251.844H151.515V244.579H161.347C163.073 244.579 164.507 244.343 165.648 243.87C166.789 243.396 167.638 242.687 168.195 241.74C168.765 240.794 169.051 239.618 169.051 238.212C169.051 236.793 168.765 235.596 168.195 234.622C167.638 233.647 166.782 232.91 165.627 232.409C164.486 231.894 163.045 231.636 161.306 231.636H155.21V267H146.171ZM169.259 247.544L179.885 267H169.907L159.51 247.544H169.259ZM199.905 267H184.749V224.246H200.03C204.331 224.246 208.033 225.102 211.136 226.814C214.24 228.512 216.627 230.954 218.297 234.141C219.981 237.328 220.823 241.142 220.823 245.581C220.823 250.035 219.981 253.862 218.297 257.063C216.627 260.264 214.226 262.72 211.095 264.432C207.977 266.144 204.247 267 199.905 267ZM193.789 259.255H199.529C202.202 259.255 204.449 258.782 206.272 257.835C208.109 256.875 209.487 255.393 210.406 253.389C211.338 251.371 211.804 248.768 211.804 245.581C211.804 242.422 211.338 239.841 210.406 237.836C209.487 235.832 208.116 234.357 206.293 233.411C204.47 232.464 202.222 231.991 199.55 231.991H193.789V259.255ZM250.712 236.542C250.545 234.858 249.828 233.55 248.562 232.617C247.295 231.685 245.576 231.219 243.405 231.219C241.93 231.219 240.684 231.428 239.668 231.845C238.653 232.249 237.873 232.812 237.33 233.536C236.802 234.26 236.537 235.081 236.537 235.999C236.509 236.765 236.669 237.433 237.017 238.003C237.379 238.574 237.873 239.068 238.499 239.486C239.126 239.889 239.849 240.244 240.671 240.55C241.492 240.843 242.368 241.093 243.301 241.302L247.142 242.22C249.007 242.638 250.719 243.195 252.278 243.89C253.836 244.586 255.186 245.442 256.327 246.458C257.469 247.474 258.352 248.671 258.979 250.049C259.619 251.427 259.946 253.006 259.96 254.788C259.946 257.404 259.278 259.673 257.956 261.593C256.648 263.5 254.755 264.982 252.278 266.04C249.814 267.084 246.843 267.605 243.364 267.605C239.912 267.605 236.906 267.077 234.345 266.019C231.798 264.961 229.808 263.395 228.375 261.322C226.955 259.234 226.211 256.653 226.141 253.577H234.888C234.985 255.01 235.396 256.207 236.12 257.167C236.857 258.114 237.838 258.831 239.063 259.318C240.302 259.791 241.7 260.027 243.259 260.027C244.79 260.027 246.119 259.805 247.246 259.359C248.388 258.914 249.271 258.295 249.898 257.501C250.524 256.708 250.837 255.797 250.837 254.767C250.837 253.806 250.552 252.999 249.981 252.345C249.424 251.691 248.603 251.134 247.518 250.675C246.446 250.216 245.131 249.798 243.572 249.423L238.917 248.253C235.312 247.377 232.466 246.006 230.379 244.141C228.291 242.276 227.254 239.764 227.268 236.605C227.254 234.016 227.943 231.755 229.335 229.82C230.741 227.886 232.668 226.376 235.118 225.29C237.567 224.204 240.35 223.662 243.468 223.662C246.641 223.662 249.411 224.204 251.776 225.29C254.156 226.376 256.007 227.886 257.329 229.82C258.652 231.755 259.334 233.995 259.375 236.542H250.712Z" fill="white"/>
<path d="M52.951 79.8067C42.403 79.8067 33.5836 83.2814 26.4581 90.1936C19.3303 97.1057 15.7664 105.62 15.7664 115.735C15.7664 125.986 19.4022 134.637 26.7084 141.72C34.0169 148.803 42.8363 152.346 53.1665 152.346C63.2094 152.346 71.5978 148.906 78.4012 142.062C85.1698 135.216 88.5529 126.499 88.5529 115.942C88.5529 105.419 85.2045 96.7681 78.5101 89.9919C71.7785 83.2156 63.2836 79.8089 52.951 79.8089V79.8067ZM56.6238 16.8716H75.3772L39.5597 69.3168C42.8711 68.6021 45.8951 68.0562 48.6317 67.6814C51.3684 67.3065 53.8872 67.1377 56.1187 67.1377C70.0499 67.1377 81.5688 71.7348 90.6755 80.8962C99.7822 90.0905 104.319 101.635 104.319 115.532C104.319 129.766 99.3512 141.584 89.452 150.95C79.5181 160.315 66.9888 165.015 51.7994 165.015C36.8973 165.015 24.514 160.418 14.7237 151.189C4.89631 141.994 0 130.619 0 117.134C0 105.555 6.33531 90.5378 19.0059 72.0439C20.3013 70.2397 21.2374 68.8761 21.8862 67.9225L56.6238 16.8737V16.8716Z" fill="white"/>
<path d="M108.688 118.018H124.023C124.598 127.486 128.486 135.488 135.723 142.06C142.957 148.632 151.38 151.936 161.029 151.936C171.325 151.936 180.072 148.258 187.198 140.903C194.325 133.58 197.889 124.522 197.889 113.76C197.889 102.83 194.325 94.0081 187.198 87.2647C180.07 80.5214 170.748 77.1497 159.229 77.1497C152.678 77.1497 146.773 78.5111 141.518 81.2711C136.263 84.029 131.584 88.2534 127.515 93.9051L115.887 88.83L129.494 16.8716H198.751V31.176H142.343L134.675 71.634C139.103 68.6372 143.458 66.4581 147.779 65.0945C152.098 63.7331 156.814 63.0513 161.854 63.0513C176.828 63.0513 189.105 67.8523 198.679 77.4215C208.219 86.9907 213.007 99.2169 213.007 114.133C213.007 128.231 207.895 140.219 197.671 150.13C187.413 160.041 175.03 165.013 160.487 165.013C146.628 165.013 134.821 160.62 125.031 151.8C115.275 142.981 109.804 131.741 108.688 118.018Z" fill="white"/>
<path d="M202.065 8.12229V0H207.278V8.12229H215.998V13.0527H207.278V21.4731H202.065V13.0527H193.347V8.12229H202.065Z" fill="white"/>
</svg>
