<svg width="36" height="22" viewBox="0 0 36 22" fill="none" xmlns="http://www.w3.org/2000/svg">
<path d="M5.53966 1.85016C4.51984 0.830339 2.86638 0.830339 1.84655 1.85016C0.82673 2.86999 0.82673 4.52345 1.84655 5.54327L15.6756 19.3724C16.6955 20.3922 18.3489 20.3922 19.3687 19.3724C20.3886 18.3525 20.3886 16.6991 19.3687 15.6792L5.53966 1.85016Z" fill="#B8B8B8"/>
<path d="M15.6947 15.6756C14.6749 16.6955 14.6749 18.3489 15.6947 19.3687C16.7145 20.3886 18.368 20.3886 19.3878 19.3687L33.2169 5.53966C34.2367 4.51984 34.2367 2.86638 33.2169 1.84656C32.1971 0.826733 30.5436 0.826731 29.5238 1.84655L15.6947 15.6756Z" fill="#B8B8B8"/>
</svg>
