<svg width="34" height="26" viewBox="0 0 34 26" fill="none" xmlns="http://www.w3.org/2000/svg">
<path d="M22.4387 25.8649C22.1097 25.8649 21.7804 25.7175 21.5292 25.4221C21.0267 24.8315 21.0267 23.8742 21.5292 23.284L30.334 12.9323L21.5296 2.58116C21.0276 1.99048 21.0276 1.0332 21.5296 0.443011C22.032 -0.14767 22.8462 -0.14767 23.3486 0.443011L33.0626 11.8635C33.5646 12.4542 33.5646 13.4115 33.0626 14.0017L23.3486 25.4221C23.097 25.717 22.7681 25.8649 22.4387 25.8649Z" fill="white"/>
<path d="M32.1526 14.4444H1.28614C0.575983 14.4444 0 13.7673 0 12.9324C0 12.0974 0.575983 11.4203 1.28614 11.4203H32.1526C32.8628 11.4203 33.4388 12.0974 33.4388 12.9324C33.4388 13.7673 32.8628 14.4444 32.1526 14.4444Z" fill="white"/>
</svg>
