<svg width="413" height="340" viewBox="0 0 413 340" fill="none" xmlns="http://www.w3.org/2000/svg">
<path d="M21.4943 255.797H6.33846V213.043H21.6196C25.92 213.043 29.622 213.899 32.7256 215.611C35.8291 217.308 38.2159 219.751 39.886 222.938C41.57 226.125 42.412 229.938 42.412 234.378C42.412 238.832 41.57 242.659 39.886 245.86C38.2159 249.061 35.8152 251.517 32.6838 253.229C29.5663 254.941 25.8365 255.797 21.4943 255.797ZM15.3777 248.052H21.1186C23.7907 248.052 26.0383 247.578 27.8615 246.632C29.6986 245.672 31.0764 244.19 31.9949 242.186C32.9274 240.168 33.3936 237.565 33.3936 234.378C33.3936 231.219 32.9274 228.637 31.9949 226.633C31.0764 224.629 29.7055 223.154 27.8824 222.207C26.0592 221.261 23.8116 220.788 21.1394 220.788H15.3777V248.052ZM49.1079 255.797V213.043H77.9166V220.496H58.1471V230.683H76.4344V238.136H58.1471V248.344H78.0001V255.797H49.1079ZM108.296 225.339C108.129 223.655 107.412 222.347 106.146 221.414C104.879 220.482 103.161 220.015 100.99 220.015C99.5144 220.015 98.2688 220.224 97.2528 220.642C96.2369 221.045 95.4575 221.609 94.9147 222.333C94.3859 223.056 94.1215 223.877 94.1215 224.796C94.0936 225.561 94.2537 226.229 94.6016 226.8C94.9635 227.371 95.4575 227.865 96.0838 228.282C96.7101 228.686 97.4338 229.041 98.2549 229.347C99.076 229.639 99.9528 229.89 100.885 230.098L104.726 231.017C106.591 231.434 108.303 231.991 109.862 232.687C111.421 233.383 112.771 234.239 113.912 235.255C115.053 236.271 115.937 237.468 116.563 238.845C117.203 240.223 117.53 241.803 117.544 243.584C117.53 246.201 116.862 248.469 115.54 250.39C114.232 252.296 112.339 253.779 109.862 254.836C107.399 255.88 104.427 256.402 100.948 256.402C97.4964 256.402 94.4903 255.873 91.9295 254.815C89.3826 253.758 87.3925 252.192 85.959 250.118C84.5394 248.031 83.7949 245.449 83.7253 242.373H92.4723C92.5697 243.807 92.9802 245.004 93.7039 245.964C94.4416 246.91 95.4227 247.627 96.6474 248.114C97.8861 248.587 99.2848 248.824 100.843 248.824C102.374 248.824 103.703 248.601 104.831 248.156C105.972 247.711 106.856 247.091 107.482 246.298C108.108 245.505 108.421 244.593 108.421 243.563C108.421 242.603 108.136 241.796 107.566 241.142C107.009 240.488 106.188 239.931 105.102 239.472C104.031 239.012 102.715 238.595 101.157 238.219L96.5013 237.05C92.8967 236.173 90.0507 234.802 87.9631 232.938C85.8755 231.073 84.8387 228.561 84.8526 225.401C84.8387 222.813 85.5276 220.551 86.9193 218.617C88.3249 216.682 90.2525 215.172 92.7019 214.087C95.1513 213.001 97.9348 212.458 101.052 212.458C104.225 212.458 106.995 213.001 109.361 214.087C111.741 215.172 113.592 216.682 114.914 218.617C116.236 220.551 116.918 222.792 116.96 225.339H108.296ZM123.624 255.797V213.043H152.433V220.496H132.664V230.683H150.951V238.136H132.664V248.344H152.516V255.797H123.624ZM159.619 255.797V213.043H176.487C179.716 213.043 182.472 213.62 184.754 214.776C187.05 215.917 188.797 217.538 189.994 219.64C191.205 221.727 191.81 224.184 191.81 227.009C191.81 229.848 191.198 232.29 189.973 234.336C188.748 236.368 186.974 237.927 184.65 239.012C182.339 240.098 179.542 240.641 176.258 240.641H164.964V233.376H174.796C176.522 233.376 177.955 233.139 179.097 232.666C180.238 232.193 181.087 231.483 181.644 230.537C182.214 229.59 182.499 228.414 182.499 227.009C182.499 225.589 182.214 224.392 181.644 223.418C181.087 222.444 180.231 221.706 179.076 221.205C177.935 220.69 176.494 220.433 174.754 220.433H168.659V255.797H159.619ZM182.708 236.34L193.334 255.797H183.355L172.959 236.34H182.708ZM204.774 213.043L215.108 245.526H215.504L225.859 213.043H235.879L221.141 255.797H209.492L194.733 213.043H204.774ZM250.064 213.043V255.797H241.025V213.043H250.064ZM293.262 213.043V255.797H285.454L266.854 228.888H266.54V255.797H257.501V213.043H265.434L283.888 239.931H284.264V213.043H293.262ZM329.079 226.863C328.787 225.847 328.376 224.949 327.848 224.17C327.319 223.376 326.672 222.708 325.906 222.166C325.155 221.609 324.292 221.184 323.318 220.892C322.357 220.6 321.293 220.454 320.124 220.454C317.939 220.454 316.018 220.997 314.362 222.082C312.72 223.168 311.439 224.747 310.521 226.821C309.602 228.881 309.143 231.4 309.143 234.378C309.143 237.356 309.595 239.889 310.5 241.977C311.404 244.064 312.685 245.658 314.341 246.757C315.997 247.843 317.952 248.386 320.207 248.386C322.253 248.386 323.999 248.024 325.447 247.3C326.908 246.563 328.022 245.526 328.787 244.19C329.566 242.854 329.956 241.274 329.956 239.451L331.793 239.722H320.771V232.917H338.661V238.303C338.661 242.06 337.868 245.289 336.281 247.989C334.695 250.675 332.51 252.749 329.726 254.21C326.943 255.657 323.756 256.381 320.165 256.381C316.157 256.381 312.636 255.497 309.602 253.73C306.568 251.949 304.202 249.423 302.504 246.152C300.82 242.868 299.978 238.971 299.978 234.461C299.978 230.996 300.479 227.906 301.481 225.193C302.497 222.465 303.917 220.155 305.74 218.262C307.563 216.369 309.686 214.929 312.107 213.941C314.529 212.952 317.152 212.458 319.977 212.458C322.399 212.458 324.654 212.813 326.741 213.523C328.829 214.219 330.68 215.207 332.294 216.487C333.922 217.768 335.252 219.292 336.281 221.059C337.311 222.813 337.972 224.747 338.265 226.863H329.079Z" fill="#D2AE6D"/>
<path d="M13.7076 311.034H4.02124L18.7805 268.281H30.4292L45.1676 311.034H35.4812L24.7718 278.05H24.4378L13.7076 311.034ZM13.1022 294.229H35.9822V301.285H13.1022V294.229ZM55.6316 311.034L43.3983 268.281H53.2726L60.3495 297.987H60.7044L68.512 268.281H76.9667L84.7534 298.05H85.1292L92.2061 268.281H102.08L89.8471 311.034H81.0375L72.8959 283.082H72.5619L64.4412 311.034H55.6316ZM109.982 311.034H100.296L115.055 268.281H126.703L141.442 311.034H131.755L121.046 278.05H120.712L109.982 311.034ZM109.377 294.229H132.256V301.285H109.377V294.229ZM146.588 311.034V268.281H163.455C166.684 268.281 169.44 268.858 171.722 270.013C174.019 271.154 175.765 272.776 176.962 274.877C178.173 276.965 178.778 279.421 178.778 282.246C178.778 285.086 178.166 287.528 176.941 289.574C175.717 291.606 173.942 293.165 171.618 294.25C169.308 295.336 166.51 295.878 163.226 295.878H151.932V288.614H161.764C163.49 288.614 164.924 288.377 166.065 287.904C167.206 287.431 168.055 286.721 168.612 285.775C169.182 284.828 169.468 283.652 169.468 282.246C169.468 280.827 169.182 279.63 168.612 278.656C168.055 277.682 167.199 276.944 166.044 276.443C164.903 275.928 163.462 275.671 161.723 275.671H155.627V311.034H146.588ZM169.676 291.578L180.302 311.034H170.324L159.927 291.578H169.676ZM200.322 311.034H185.166V268.281H200.447C204.748 268.281 208.45 269.136 211.553 270.848C214.657 272.546 217.044 274.989 218.714 278.176C220.398 281.363 221.24 285.176 221.24 289.616C221.24 294.069 220.398 297.896 218.714 301.097C217.044 304.298 214.643 306.755 211.512 308.467C208.394 310.178 204.664 311.034 200.322 311.034ZM194.206 303.289H199.946C202.619 303.289 204.866 302.816 206.689 301.87C208.526 300.91 209.904 299.427 210.823 297.423C211.755 295.405 212.221 292.803 212.221 289.616C212.221 286.456 211.755 283.875 210.823 281.871C209.904 279.867 208.533 278.391 206.71 277.445C204.887 276.499 202.639 276.025 199.967 276.025H194.206V303.289ZM251.129 280.576C250.962 278.892 250.245 277.584 248.979 276.652C247.712 275.719 245.993 275.253 243.822 275.253C242.347 275.253 241.101 275.462 240.085 275.879C239.07 276.283 238.29 276.847 237.747 277.57C237.219 278.294 236.954 279.115 236.954 280.034C236.926 280.799 237.086 281.467 237.434 282.038C237.796 282.608 238.29 283.102 238.916 283.52C239.543 283.924 240.266 284.278 241.088 284.585C241.909 284.877 242.785 285.127 243.718 285.336L247.559 286.255C249.424 286.672 251.136 287.229 252.695 287.925C254.253 288.621 255.603 289.476 256.744 290.492C257.886 291.508 258.769 292.705 259.396 294.083C260.036 295.461 260.363 297.041 260.377 298.822C260.363 301.438 259.695 303.707 258.373 305.627C257.065 307.534 255.172 309.016 252.695 310.074C250.231 311.118 247.26 311.64 243.781 311.64C240.329 311.64 237.323 311.111 234.762 310.053C232.215 308.995 230.225 307.43 228.792 305.356C227.372 303.268 226.628 300.687 226.558 297.611H235.305C235.402 299.045 235.813 300.241 236.537 301.202C237.274 302.148 238.255 302.865 239.48 303.352C240.719 303.825 242.117 304.062 243.676 304.062C245.207 304.062 246.536 303.839 247.663 303.394C248.805 302.948 249.688 302.329 250.315 301.536C250.941 300.743 251.254 299.831 251.254 298.801C251.254 297.841 250.969 297.034 250.398 296.379C249.841 295.725 249.02 295.169 247.935 294.709C246.863 294.25 245.548 293.833 243.989 293.457L239.334 292.288C235.729 291.411 232.883 290.04 230.796 288.175C228.708 286.31 227.671 283.798 227.685 280.639C227.671 278.05 228.36 275.789 229.752 273.854C231.158 271.92 233.085 270.41 235.535 269.324C237.984 268.239 240.767 267.696 243.885 267.696C247.058 267.696 249.828 268.239 252.193 269.324C254.573 270.41 256.424 271.92 257.746 273.854C259.069 275.789 259.751 278.03 259.792 280.576H251.129Z" fill="#D2AE6D"/>
<path d="M62.9559 100.423C50.4148 100.423 39.9291 104.795 31.4573 113.493C22.9827 122.191 18.7454 132.905 18.7454 145.633C18.7454 158.532 23.0681 169.418 31.7548 178.331C40.4443 187.244 50.93 191.702 63.2121 191.702C75.1525 191.702 85.1258 187.373 93.2147 178.761C101.262 170.146 105.285 159.178 105.285 145.893C105.285 132.652 101.304 121.766 93.3442 113.239C85.3407 104.713 75.2407 100.426 62.9559 100.426V100.423ZM67.3227 21.23H89.6194L47.0344 87.2233C50.9714 86.3241 54.5667 85.6372 57.8204 85.1655C61.0742 84.6937 64.0689 84.4813 66.722 84.4813C83.2855 84.4813 96.9809 90.2661 107.808 101.794C118.636 113.364 124.03 127.89 124.03 145.377C124.03 163.288 118.123 178.16 106.354 189.944C94.5426 201.729 79.646 207.643 61.5866 207.643C43.8688 207.643 29.1458 201.859 17.5057 190.245C5.82144 178.676 0 164.361 0 147.393C0 132.823 7.53233 113.926 22.597 90.655C24.1371 88.3847 25.2501 86.6689 26.0215 85.4689L67.3227 21.2327V21.23Z" fill="#D2AE6D"/>
<path d="M129.223 148.505H147.456C148.139 160.419 152.762 170.488 161.366 178.758C169.968 187.029 179.982 191.186 191.454 191.186C203.695 191.186 214.096 186.557 222.567 177.302C231.042 168.088 235.279 156.69 235.279 143.148C235.279 129.394 231.042 118.293 222.567 109.808C214.093 101.322 203.009 97.0797 189.314 97.0797C181.525 97.0797 174.505 98.7928 168.257 102.266C162.008 105.736 156.446 111.052 151.608 118.164L137.783 111.777L153.961 21.23H236.304V39.2297H169.238L160.121 90.1392C165.386 86.3682 170.563 83.6262 175.701 81.9103C180.836 80.1973 186.443 79.3393 192.435 79.3393C210.238 79.3393 224.835 85.3806 236.219 97.4218C247.561 109.463 253.253 124.848 253.253 143.617C253.253 161.357 247.176 176.441 235.02 188.913C222.824 201.384 208.101 207.641 190.81 207.641C174.332 207.641 160.295 202.112 148.655 191.015C137.056 179.917 130.551 165.774 129.223 148.505Z" fill="#D2AE6D"/>
<path d="M240.244 10.2205V0H246.443V10.2205H256.81V16.4245H246.443V27.0202H240.244V16.4245H229.879V10.2205H240.244Z" fill="#D2AE6D"/>
</svg>
