<svg width="342" height="120" viewBox="0 0 342 120" fill="none" xmlns="http://www.w3.org/2000/svg">
<g clip-path="url(#clip0_2_23)">
<path d="M35.1184 49.4119C27.9752 49.4119 21.6131 51.887 16.679 56.1672L14.0812 51.3845H0V120H20.4622V109.712C24.7119 112.281 29.6841 113.713 35.1184 113.713C53.5024 113.713 66.6381 100.33 66.6381 81.5347C66.6381 62.7374 53.5024 49.4119 35.1184 49.4119ZM32.3541 95.344C24.5997 95.344 18.8866 89.4621 18.8866 81.5347C18.8866 73.6061 24.5997 67.7256 32.3541 67.7256C40.1091 67.7256 45.8229 73.6061 45.8229 81.5347C45.8229 89.4621 40.0717 95.344 32.3541 95.344Z" fill="#0098DA"/>
<path d="M92.4594 29.6098V53.5987C88.1549 50.9201 83.0732 49.4117 77.5263 49.4117C59.0665 49.4117 45.9502 62.7931 45.9502 81.5347C45.9502 100.275 59.0665 113.713 77.5263 113.713C84.52 113.713 90.7721 111.329 95.6495 107.199L97.5983 111.685H112.922V29.6098H92.4594ZM80.2897 95.344C72.5355 95.344 66.8203 89.4069 66.8203 81.5347C66.8203 73.6627 72.5355 67.7256 80.2897 67.7256C88.0434 67.7256 93.7587 73.6627 93.7584 81.5347C93.7584 89.4069 88.0434 95.344 80.2897 95.344Z" fill="#EC268F"/>
<path d="M145.529 51.3283L143.413 55.9814C138.461 51.8875 132.134 49.5055 125.047 49.5055C106.663 49.5055 93.5293 62.7936 93.5293 81.4785C93.5293 100.221 106.663 113.657 125.047 113.657C132.024 113.657 138.256 111.348 143.192 107.347L144.954 111.61H160.945V51.3283H145.529ZM127.812 95.2689C120.056 95.2689 114.343 89.4074 114.343 81.515C114.343 73.6807 120.001 67.799 127.812 67.799C135.568 67.799 141.281 73.6807 141.281 81.515C141.281 89.3884 135.568 95.2689 127.812 95.2689Z" fill="#FFCC29"/>
<path d="M102.691 6.10352e-05L106.337 11.3326L118.206 11.3108L108.591 18.2916L112.28 29.6098L102.691 22.5927L93.101 29.6098L96.79 18.2916L87.1733 11.3108L99.0445 11.3326L102.691 6.10352e-05Z" fill="#FFCC29"/>
<path d="M150.756 48.7651H152.07V43.8783H153.861V42.7692H148.963V43.8783H150.756V48.7651ZM154.547 48.7651H155.777V44.5575H155.794L157.26 48.7651H158.273L159.738 44.5162H159.754V48.7651H160.985V42.7692H159.135L157.811 46.8919H157.795L156.398 42.7692H154.547V48.7651Z" fill="#FFCC29"/>
<path d="M174.896 51.3372H182.431C184.71 51.3372 186.337 52.0752 187.31 53.5517C188.284 55.0279 188.771 57.187 188.771 60.0288C188.771 62.8704 188.339 65.0129 187.476 66.4558C186.613 67.8989 185.064 68.6203 182.829 68.6203H180.505V79.9428H174.896V51.3372ZM180.837 63.4589C181.523 63.4589 182.027 63.331 182.348 63.0758C182.668 62.8205 182.879 62.4542 182.978 61.9769C183.078 61.4993 183.128 60.8167 183.128 59.9287C183.128 58.7299 182.995 57.864 182.73 57.3312C182.464 56.7984 181.933 56.532 181.136 56.532H180.505V63.4589H180.837ZM190.856 51.3372H199.62C201.014 51.3372 202.093 51.6535 202.856 52.2862C203.62 52.9188 204.134 53.8068 204.399 54.9504C204.665 56.0935 204.798 57.5532 204.798 59.3294C204.798 60.9499 204.588 62.2154 204.167 63.1255C203.747 64.0358 203.016 64.6687 201.976 65.0237C202.839 65.2015 203.465 65.6345 203.852 66.3226C204.239 67.0106 204.433 67.9435 204.433 69.12L204.366 79.9428H198.79V68.7535C198.79 67.9543 198.635 67.4436 198.325 67.2216C198.015 66.9998 197.451 66.8887 196.632 66.8887V79.9428H190.856V51.3372ZM198.026 61.927C198.823 61.927 199.221 61.061 199.221 59.3294C199.221 58.5746 199.188 58.0085 199.122 57.631C199.055 57.2535 198.934 56.9926 198.756 56.8486C198.579 56.7041 198.325 56.6318 197.993 56.6318H196.665V61.927H198.026ZM206.717 79.9428V51.3372H212.228V79.9428H206.717ZM214.811 79.9428V51.3372H220.686L223.309 65.0237V51.3372H228.819V79.9428H223.242L220.387 65.6232V79.9428H214.811ZM234.09 79.9428V56.8318H230.705V51.3372H243.186V56.8318H239.8V79.9428H234.09Z" fill="#00AFEF"/>
<path d="M245.537 71.6508V67.8878H253.902V71.6508H245.537Z" fill="#373435"/>
<path d="M256.883 51.3372H264.75C266.786 51.3372 268.313 51.9034 269.331 53.0357C270.349 54.1675 270.869 55.8439 270.891 58.0639L270.958 71.4511C270.98 74.2706 270.493 76.3905 269.497 77.8113C268.501 79.2321 266.853 79.9428 264.551 79.9428H256.883V51.3372ZM263.622 74.8812C264.662 74.8812 265.182 74.3704 265.182 73.3493V58.5967C265.182 57.9528 265.132 57.4702 265.032 57.1483C264.933 56.8262 264.75 56.6098 264.485 56.4986C264.219 56.388 263.81 56.3323 263.257 56.3323H262.626V74.8812H263.622ZM273.541 79.9428V51.3372H284.96V56.8651H279.35V62.4261H284.727V67.8211H279.35V74.3812H285.325V79.9428H273.541ZM294.281 80.2092C291.692 80.2092 289.822 79.5655 288.671 78.2776C287.521 76.99 286.946 74.9145 286.946 72.0504V69.2532H292.555V72.8165C292.555 74.2372 293.009 74.9474 293.916 74.9474C294.425 74.9474 294.779 74.7977 294.978 74.4981C295.178 74.1984 295.277 73.6932 295.277 72.983C295.277 72.0504 295.167 71.279 294.945 70.6682C294.724 70.0579 294.442 69.5472 294.099 69.1368C293.756 68.7259 293.142 68.0875 292.257 67.2216L289.8 64.7573C287.897 62.8927 286.946 60.828 286.946 58.5633C286.946 56.1211 287.504 54.2618 288.622 52.9855C289.739 51.709 291.371 51.0708 293.518 51.0708C296.085 51.0708 297.933 51.7534 299.062 53.1187C300.19 54.4841 300.754 56.6208 300.754 59.5291H294.945L294.912 57.5645C294.912 57.187 294.807 56.8872 294.597 56.6652C294.387 56.4432 294.093 56.3323 293.717 56.3323C293.275 56.3323 292.943 56.4542 292.721 56.6986C292.5 56.9429 292.389 57.2755 292.389 57.6977C292.389 58.6301 292.92 59.5958 293.983 60.5949L297.302 63.7915C298.077 64.5465 298.718 65.2625 299.227 65.9397C299.736 66.617 300.146 67.416 300.455 68.3371C300.765 69.2587 300.921 70.3521 300.921 71.6174C300.921 74.4369 300.406 76.5739 299.377 78.028C298.348 79.4822 296.65 80.2092 294.281 80.2092ZM302.84 79.9428V51.3372H308.35V79.9428H302.84ZM316.808 80.2092C314.75 80.2092 313.218 79.4822 312.211 78.028C311.204 76.5739 310.7 74.3704 310.7 71.4177V59.0962C310.7 56.4542 311.287 54.4565 312.46 53.1019C313.633 51.7478 315.381 51.0708 317.705 51.0708C319.586 51.0708 321.046 51.4481 322.086 52.2031C323.126 52.9574 323.846 54.0564 324.244 55.4998C324.642 56.9429 324.841 58.7966 324.841 61.061H319.265V58.4969C319.265 57.8088 319.171 57.2755 318.982 56.8982C318.794 56.5212 318.457 56.3323 317.97 56.3323C316.886 56.3323 316.344 57.0427 316.344 58.4635V72.3168C316.344 73.1827 316.454 73.8377 316.676 74.2817C316.897 74.7257 317.284 74.9474 317.837 74.9474C318.391 74.9474 318.778 74.7257 318.999 74.2817C319.221 73.8377 319.331 73.1827 319.331 72.3168V68.2207H317.804V63.2923H324.775V79.9428H322.485L321.522 77.5449C320.504 79.3212 318.933 80.2092 316.808 80.2092ZM327.325 79.9428V51.3372H333.2L335.823 65.0237V51.3372H341.333V79.9428H335.756L332.902 65.6232V79.9428H327.325Z" fill="#EC268F"/>
<path d="M174.896 111.63L177.651 83.0246H187.31L190.032 111.63H184.621L184.223 107.002H180.771L180.439 111.63H174.896ZM181.203 102.439H183.792L182.531 87.8867H182.265L181.203 102.439ZM193.518 111.63L190.464 83.0246H196.04L197.634 101.074L199.227 83.0246H204.538L206.065 101.074L207.592 83.0246H213.235L210.115 111.63H203.277L201.85 97.8436L200.489 111.63H193.518ZM213.468 111.63L216.223 83.0246H225.883L228.605 111.63H223.194L222.795 107.002H219.343L219.011 111.63H213.468ZM219.775 102.439H222.364L221.103 87.8867H220.837L219.775 102.439ZM230.331 83.0246H239.094C240.488 83.0246 241.567 83.3411 242.331 83.9738C243.094 84.6062 243.609 85.4944 243.874 86.638C244.14 87.7811 244.273 89.2408 244.273 91.017C244.273 92.6375 244.062 93.903 243.642 94.8131C243.221 95.7234 242.491 96.3563 241.451 96.7113C242.314 96.8891 242.939 97.3221 243.326 98.0102C243.714 98.6982 243.908 99.6309 243.908 100.808L243.841 111.63H238.264V100.441C238.264 99.6419 238.11 99.1312 237.799 98.9092C237.49 98.6874 236.926 98.5763 236.107 98.5763V111.63H230.331V83.0246ZM237.501 93.6143C238.298 93.6143 238.696 92.7484 238.696 91.017C238.696 90.262 238.663 89.6959 238.596 89.3186C238.53 88.9411 238.408 88.6802 238.231 88.5359C238.054 88.3917 237.799 88.3195 237.468 88.3195H236.14V93.6143H237.501ZM246.165 83.0246H254.032C256.068 83.0246 257.595 83.5907 258.613 84.7231C259.631 85.8551 260.151 87.5315 260.173 89.7515L260.239 103.139C260.261 105.958 259.775 108.078 258.779 109.499C257.783 110.92 256.134 111.63 253.833 111.63H246.165V83.0246ZM252.903 106.569C253.944 106.569 254.463 106.058 254.463 105.037V90.2843C254.463 89.6404 254.414 89.1578 254.314 88.8357C254.214 88.5139 254.032 88.2971 253.766 88.1862C253.501 88.0754 253.092 88.0199 252.538 88.0199H251.907V106.569H252.903ZM269.301 111.897C266.712 111.897 264.842 111.253 263.691 109.965C262.541 108.678 261.965 106.602 261.965 103.738V100.941H267.575V104.504C267.575 105.925 268.029 106.635 268.936 106.635C269.445 106.635 269.8 106.485 269.999 106.186C270.198 105.886 270.297 105.381 270.297 104.671C270.297 103.738 270.187 102.967 269.966 102.356C269.744 101.745 269.462 101.235 269.119 100.824C268.776 100.414 268.162 99.7751 267.277 98.9092L264.82 96.4449C262.917 94.5801 261.965 92.5156 261.965 90.2507C261.965 87.8087 262.525 85.9495 263.642 84.6731C264.759 83.3966 266.391 82.7582 268.538 82.7582C271.105 82.7582 272.953 83.441 274.082 84.8063C275.21 86.1715 275.774 88.3084 275.774 91.2165H269.966L269.932 89.2521C269.932 88.8746 269.827 88.5748 269.617 88.3528C269.407 88.1306 269.113 88.0199 268.737 88.0199C268.295 88.0199 267.963 88.1419 267.741 88.3862C267.52 88.6305 267.409 88.9631 267.409 89.3853C267.409 90.3177 267.94 91.2834 269.003 92.2826L272.322 95.4791C273.097 96.2339 273.738 96.9501 274.247 97.6274C274.756 98.3044 275.166 99.1036 275.476 100.025C275.786 100.946 275.94 102.04 275.94 103.305C275.94 106.125 275.426 108.261 274.397 109.716C273.368 111.17 271.669 111.897 269.301 111.897Z" fill="#FFCC29"/>
</g>
<defs>
<clipPath id="clip0_2_23">
<rect width="341.333" height="120" fill="white"/>
</clipPath>
</defs>
</svg>
